<svg width="1920" height="1080" viewBox="0 0 1920 1080" fill="none" xmlns="http://www.w3.org/2000/svg">
  <defs>
    <radialGradient id="g1" cx="0" cy="0" r="1" gradientUnits="userSpaceOnUse" gradientTransform="translate(960 520) rotate(90) scale(700 1200)">
      <stop offset="0" stop-color="#13361f"/>
      <stop offset="1" stop-color="#030705"/>
    </radialGradient>
    <linearGradient id="g2" x1="0" y1="0" x2="1920" y2="1080" gradientUnits="userSpaceOnUse">
      <stop stop-color="#0E2717" stop-opacity="0.9"/>
      <stop offset="1" stop-color="#06110A" stop-opacity="0.95"/>
    </linearGradient>
    <filter id="f1" x="-20%" y="-20%" width="140%" height="140%">
      <feGaussianBlur stdDeviation="10"/>
    </filter>
  </defs>
  <rect width="1920" height="1080" fill="url(#g1)"/>
  <rect width="1920" height="1080" fill="url(#g2)"/>
  <circle cx="320" cy="280" r="220" fill="#29C46D" fill-opacity="0.09" filter="url(#f1)"/>
  <circle cx="1600" cy="820" r="260" fill="#29C46D" fill-opacity="0.08" filter="url(#f1)"/>
  <circle cx="980" cy="180" r="180" fill="#1D8F52" fill-opacity="0.06" filter="url(#f1)"/>
  <g opacity="0.23" stroke="#59D18A" stroke-width="1.2">
    <path d="M180 190C420 120 660 140 910 210"/>
    <path d="M210 250C450 180 700 190 940 270"/>
    <path d="M1010 220C1200 150 1450 170 1710 280"/>
    <path d="M1030 290C1240 230 1490 240 1740 340"/>
    <path d="M300 760C530 690 740 700 980 770"/>
    <path d="M1030 760C1240 700 1490 720 1720 790"/>
    <path d="M340 840C560 780 760 790 980 860"/>
  </g>
  <g opacity="0.21" stroke="#8ADFAE" stroke-width="1">
    <path d="M180 550L250 430L360 510L470 390L610 460L710 360"/>
    <path d="M1240 530L1330 450L1440 500L1560 410L1700 470"/>
    <path d="M260 910L340 820L460 860L560 780L660 820"/>
  </g>
  <g opacity="0.26" fill="#92E3B2">
    <path d="M830 710L900 540L980 710H830Z"/>
    <path d="M1450 680L1510 530L1580 680H1450Z"/>
    <path d="M420 690L470 560L530 690H420Z"/>
  </g>
  <g opacity="0.2" stroke="#A7EBC2" stroke-width="1">
    <circle cx="1450" cy="240" r="88"/>
    <circle cx="1450" cy="240" r="48"/>
    <path d="M1450 152V328M1362 240H1538"/>
  </g>
  <g opacity="0.18" stroke="#B5F2CD" stroke-width="1.5">
    <path d="M235 820L315 710L395 820"/>
    <path d="M275 820V685"/>
    <path d="M220 860H410"/>
    <path d="M620 250L700 170L780 250"/>
    <path d="M700 170V290"/>
    <path d="M590 320H810"/>
  </g>
  <g opacity="0.22" fill="#A6EFC7">
    <circle cx="1650" cy="220" r="3"/>
    <circle cx="1680" cy="246" r="2.5"/>
    <circle cx="1620" cy="245" r="2.5"/>
    <circle cx="1650" cy="272" r="2.7"/>
    <circle cx="560" cy="180" r="2.5"/>
    <circle cx="590" cy="210" r="2.5"/>
    <circle cx="520" cy="220" r="2.5"/>
    <circle cx="550" cy="250" r="2.8"/>
  </g>
  <g opacity="0.16" stroke="#BFF6D5" stroke-width="1.4">
    <path d="M1130 860C1160 790 1250 770 1300 810C1350 850 1430 840 1470 770"/>
    <path d="M1130 860C1200 900 1300 905 1370 870"/>
    <path d="M1290 750L1310 730L1330 750L1310 770Z"/>
  </g>
  <g opacity="0.16" stroke="#BDEFD1" stroke-width="1.2">
    <circle cx="350" cy="360" r="44"/>
    <circle cx="350" cy="360" r="20"/>
    <path d="M350 316V404M306 360H394"/>
    <path d="M320 330L380 390M380 330L320 390"/>
  </g>
  <g opacity="0.14" stroke="#B8F0CD" stroke-width="1">
    <path d="M980 905L1040 835L1110 900L1180 820L1250 880"/>
    <path d="M80 620L160 560L240 620L320 550L390 610"/>
    <path d="M1510 590L1600 520L1700 590L1780 525"/>
  </g>
  <g opacity="0.12" fill="#D2FDE3">
    <path d="M1060 250C1090 250 1120 270 1130 300C1110 315 1080 325 1050 320C1020 315 990 300 970 280C990 260 1020 250 1060 250Z"/>
    <path d="M1120 300C1160 300 1190 325 1200 360C1175 370 1140 372 1110 362C1080 352 1055 330 1040 305C1065 300 1090 298 1120 300Z"/>
  </g>
</svg>
